<svg xmlns="http://www.w3.org/2000/svg" viewBox="0 0 48 48">
  <circle cx="24" cy="24" r="24" fill="#7A1F3D"/>
  <g fill="#E9A23B">
    <path d="M24 12c3 4 3 9 0 13-3-4-3-9 0-13Z"/>
    <path d="M24 12c3 4 3 9 0 13-3-4-3-9 0-13Z" transform="rotate(60 24 24)"/>
    <path d="M24 12c3 4 3 9 0 13-3-4-3-9 0-13Z" transform="rotate(120 24 24)"/>
    <path d="M24 12c3 4 3 9 0 13-3-4-3-9 0-13Z" transform="rotate(180 24 24)"/>
    <path d="M24 12c3 4 3 9 0 13-3-4-3-9 0-13Z" transform="rotate(240 24 24)"/>
    <path d="M24 12c3 4 3 9 0 13-3-4-3-9 0-13Z" transform="rotate(300 24 24)"/>
  </g>
  <circle cx="24" cy="24" r="4" fill="#FFF3D6"/>
</svg>
